<svg version="1.0" xmlns="http://www.w3.org/2000/svg"
 width="512.000000pt" height="512.000000pt" viewBox="0 0 512.000000 512.000000"
 preserveAspectRatio="xMidYMid meet">

<g transform="translate(0.000000,512.000000) scale(0.100000,-0.100000)"
fill="#000000" stroke="none">
<path d="M2385 5114 c-563 -55 -1006 -229 -1430 -562 -93 -73 -315 -297 -395
-397 -230 -289 -415 -675 -494 -1030 -47 -208 -60 -334 -60 -570 1 -245 20
-405 73 -615 46 -181 40 -179 95 -39 44 113 214 499 369 836 36 78 106 222
157 320 234 451 292 567 341 692 29 73 59 135 66 138 40 15 93 -33 93 -85 0
-10 -60 -142 -134 -293 -132 -269 -182 -391 -171 -410 12 -18 139 -9 232 16
256 68 602 231 1133 533 258 147 300 164 300 123 0 -26 -76 -127 -139 -184
-70 -62 -409 -233 -631 -317 -498 -189 -665 -262 -782 -342 -92 -62 -99 -90
-34 -136 177 -128 657 -608 913 -913 225 -269 353 -480 353 -581 0 -32 -33
-71 -57 -66 -9 2 -54 59 -100 127 -192 287 -439 574 -850 987 -235 236 -376
335 -478 336 -110 2 -174 -97 -313 -487 -65 -181 -129 -337 -207 -499 l-47
-98 27 -62 c79 -180 207 -393 333 -556 80 -103 311 -336 407 -412 594 -466
1317 -653 2038 -528 429 75 817 249 1172 528 96 76 327 309 407 412 283 365
456 776 524 1245 27 181 24 515 -5 700 -29 186 -46 256 -56 230 -131 -353
-535 -720 -1230 -1117 -487 -278 -1039 -498 -1251 -498 -71 0 -94 17 -94 70 0
77 105 133 605 320 525 197 611 240 1110 563 215 140 417 313 535 462 184 231
195 435 32 587 -72 66 -162 111 -289 145 -86 22 -119 26 -263 27 -125 0 -186
-4 -250 -18 -260 -56 -446 -146 -596 -289 -62 -58 -74 -75 -88 -127 -23 -83
-88 -225 -232 -512 -183 -365 -283 -614 -344 -855 -10 -40 -13 -43 -44 -43
-49 0 -66 25 -66 98 0 114 82 336 280 757 191 406 189 401 177 462 -23 110 30
218 157 325 214 179 437 292 686 345 120 25 391 25 510 -1 164 -36 307 -95
433 -179 37 -25 67 -43 67 -39 0 3 -25 53 -56 111 -67 128 -163 276 -252 391
-80 103 -311 336 -407 412 -464 364 -979 550 -1550 562 -104 2 -208 2 -230 0z"/>
</g>
</svg>
